HIERARCHY
ROOT ui
{
	 OFFSET 0 0 0
	 CHANNELS 3 XPosition YPosition Z Position
	 EndSite
	 {
	 OFFSET 0 -1 0
	 }
}
ROOT li
{
	 OFFSET 0 0 0
	 CHANNELS 3 XPosition YPosition Z Position
	 EndSite
	 {
	 OFFSET 0 -1 0
	 }
}
ROOT ul
{
	 OFFSET 0 0 0
	 CHANNELS 3 XPosition YPosition Z Position
	 EndSite
	 {
	 OFFSET 0 -1 0
	 }
}
ROOT ll
{
	 OFFSET 0 0 0
	 CHANNELS 3 XPosition YPosition Z Position
	 EndSite
	 {
	 OFFSET 0 -1 0
	 }
}
ROOT tt
{
	 OFFSET 0 0 0
	 CHANNELS 3 XPosition YPosition Z Position
	 EndSite
	 {
	 OFFSET 0 -1 0
	 }
}
ROOT tb
{
	 OFFSET 0 0 0
	 CHANNELS 3 XPosition YPosition Z Position
	 EndSite
	 {
	 OFFSET 0 -1 0
	 }
}
ROOT td
{
	 OFFSET 0 0 0
	 CHANNELS 3 XPosition YPosition Z Position
	 EndSite
	 {
	 OFFSET 0 -1 0
	 }
}
ROOT v
{
	 OFFSET 0 0 0
	 CHANNELS 3 XPosition YPosition Z Position
	 EndSite
	 {
	 OFFSET 0 -1 0
	 }
}
ROOT bn
{
	 OFFSET 0 0 0
	 CHANNELS 3 XPosition YPosition Z Position
	 EndSite
	 {
	 OFFSET 0 -1 0
	 }
}
MOTION
Frames: 18
Frame Time: 0.002
-0.005873380184173584	0.0033869240283966066	0		0.5300780029296875	-2.39519287109375	0		-1.1098282470703125	0.07947731018066406	0		-0.6926655883789062	-2.69230908203125	0		1.8937979736328125	-0.8081034545898438	0		3.472820068359375	-0.36648251342773436	0		4.69758642578125	-0.32642828369140625	0		5.99405859375	0.46960693359375	0		-0.15860101318359374	5.90345654296875	0		
0.007176971912384033	-0.0030346341133117676	0		0.5052969665527344	-2.390029052734375	0		-1.1096832275390625	0.07925906372070313	0		-0.6925277709960938	-2.692528564453125	0		1.94328466796875	-0.8510982055664063	0		3.472118896484375	-0.3566983032226563	0		4.70668310546875	-0.3298004150390625	0		6.0070791015625	0.461170166015625	0		-0.12139906311035156	5.90566259765625	0		
-0.0025319468975067137	0.005899785041809082	0		0.5235340576171875	-2.384528564453125	0		-1.109532470703125	0.07904176330566406	0		-0.6944126586914062	-2.69471533203125	0		1.9128492431640625	-0.88885205078125	0		3.49169384765625	-0.39422882080078125	0		4.7068330078125	-0.33002801513671876	0		6.01135400390625	0.46887741088867185	0		-0.15532681274414062	5.899970703125	0		
-0.0023747799396514895	0.0056817798614501955	0		0.5264409790039063	-2.40079150390625	0		-1.124419921875	0.07605732727050782	0		-0.6613703002929687	-2.702442626953125	0		1.9611329345703126	-0.9458235473632812	0		3.505848876953125	-0.39466677856445315	0		4.7238486328125	-0.33951248168945314	0		6.0025126953125	0.4687930603027344	0		-0.08700199127197265	5.90969873046875	0		
5.416820049285888E-4	-0.010580690383911132	0		0.5245744018554688	-2.402978271484375	0		-1.13423876953125	0.07699419403076171	0		-0.7032631225585938	-2.706010009765625	0		1.9466024169921874	-0.9908197021484375	0		3.5106103515625	-0.42095950317382813	0		4.72913623046875	-0.3318094482421875	0		6.00267724609375	0.46857427978515626	0		-0.12091002655029297	5.9050078125	0		
-0.005083539009094238	0.0022912890911102293	0		0.49675177001953125	-2.40276416015625	0		-1.12222216796875	0.06658975982666016	0		-0.6582955322265625	-2.719924560546875	0		1.99077978515625	-1.0557269287109374	0		3.508489501953125	-0.4401438293457031	0		4.74004443359375	-0.3491946105957031	0		6.002849609375	0.46835794067382813	0		-0.15482893371582032	5.8993154296875	0		
0.00800464916229248	-0.004130866050720215	0		0.534792724609375	-2.412572265625	0		-1.10885546875	0.07816444396972656	0		-0.7181187744140625	-2.720218017578125	0		1.9654710693359374	-1.0875560302734375	0		3.533972900390625	-0.48575936889648436	0		4.744056640625	-0.3604726257324219	0		6.00403173828125	0.46812619018554685	0		-0.15366720581054688	5.898078125	0		
0.01124428653717041	-0.0014019780158996582	0		0.534989013671875	-2.412796142578125	0		-1.1086619873046875	0.07793885040283204	0		-0.6470389404296875	-2.728541259765625	0		2.0207152099609376	-1.149637451171875	0		3.55239697265625	-0.4712600402832031	0		4.75932666015625	-0.35592428588867187	0		6.00834814453125	0.4758458557128906	0		-0.11940706634521485	5.9023271484375	0		
-0.004502731800079346	0.001618417978286743	0		0.5290892944335938	-2.419928466796875	0		-1.1175802001953126	0.06985074615478516	0		-0.7356961669921875	-2.719392578125	0		2.00411865234375	-1.2016077880859375	0		3.531800048828125	-0.5231664428710937	0		4.7722978515625	-0.3713441467285156	0		6.00855224609375	0.47562701416015624	0		-0.12017925262451172	5.904115234375	0		
-0.00428803014755249	0.0013894280195236206	0		0.5341058349609376	-2.433232421875	0		-1.121427001953125	0.06568247985839844	0		-0.655781005859375	-2.739858154296875	0		2.02948095703125	-1.2572294921875	0		3.557904052734375	-0.5307916259765625	0		4.78526416015625	-0.38776531982421875	0		5.99951953125	0.459548095703125	0		-0.11997325897216797	5.90388623046875	0		
0.004795190811157227	-0.007979443073272705	0		0.5302715454101562	-2.437400146484375	0		-1.1130806884765625	0.07332539367675782	0		-0.7304825439453125	-2.734929931640625	0		2.0429930419921876	-1.3036683349609375	0		3.56760107421875	-0.565167724609375	0		4.78958056640625	-0.38205154418945314	0		6.00386572265625	0.467263427734375	0		-0.1538472137451172	5.898181640625	0		
-0.0038330669403076174	9.269980192184448E-4	0		0.5325369262695312	-2.435662353515625	0		-1.0959442138671875	0.06682990264892578	0		-0.6553182983398438	-2.740322509765625	0		2.05855908203125	-1.3471396484375	0		3.584769287109375	-0.5696571655273438	0		4.80053271484375	-0.4004448547363281	0		6.0040966796875	0.4670397644042969	0		-0.15263929748535157	5.8969345703125	0		
0.0035127999782562256	0.007586288928985596	0		0.5307476196289063	-2.437862060546875	0		-1.1075498046875	0.07678143310546875	0		-0.6502937622070313	-2.754630615234375	0		2.100252685546875	-1.3830142822265625	0		3.5853896484375	-0.6098951416015626	0		4.8158623046875	-0.39490341186523437	0		6.00945751953125	0.4747370910644531	0		-0.152407958984375	5.89670263671875	0		
-0.003350147008895874	4.6501699090003966E-4	0		0.560713134765625	-2.4565537109375	0		-1.1204893798828126	0.06475218200683594	0		-0.6660130004882813	-2.752614501953125	0		2.09580322265625	-1.4281748046875	0		3.621445068359375	-0.6226764526367188	0		4.8288740234375	-0.41032708740234375	0		6.0135771484375	0.4664532775878906	0		-0.1180975341796875	5.90094580078125	0		
-0.003100403070449829	2.362080067396164E-4	0		0.524094970703125	-2.448210205078125	0		-1.12023974609375	0.0645215835571289	0		-0.6698201904296875	-2.756781982421875	0		2.147384033203125	-1.4721993408203125	0		3.61815478515625	-0.657848876953125	0		4.83496875	-0.42063973999023435	0		6.00096728515625	0.4754341125488281	0		-0.11882621002197266	5.90273193359375	0		
-0.006907162189483643	-0.003928788900375366	0		0.5380287475585938	-2.469650390625	0		-1.1199853515625	0.06429169464111328	0		-0.6529169921875	-2.78027099609375	0		2.14914697265625	-1.5044488525390625	0		3.62623974609375	-0.6691903076171875	0		4.856943359375	-0.4391940612792969	0		6.0050810546875	0.46615972900390623	0		-0.15267381286621093	5.89703076171875	0		
0.010319734573364258	-0.006417168140411377	0		0.5403274536132813	-2.467905517578125	0		-1.106541748046875	0.07585980987548828	0		-0.672630126953125	-2.77918994140625	0		2.161900146484375	-1.537864501953125	0		3.635990478515625	-0.7025547485351562	0		4.85615869140625	-0.4423879699707031	0		6.01046240234375	0.4738755187988281	0		-0.15046461486816406	5.89477392578125	0		
0.00478697919845581	0.006450572967529297	0		0.567570556640625	-2.47054345703125	0		-1.1062764892578125	0.07563108062744141	0		-0.6523692016601562	-2.7807255859375	0		2.144819580078125	-1.560812255859375	0		3.667487548828125	-0.688241943359375	0		4.87228515625	-0.4518346557617188	0		6.018740234375	0.4745567626953125	0		-0.0867862777709961	5.92257275390625	0		
